<?xml version="1.0" encoding="utf-8"?>
<!-- Generator: Adobe Illustrator 16.0.0, SVG Export Plug-In . SVG Version: 6.00 Build 0)  -->
<!DOCTYPE svg PUBLIC "-//W3C//DTD SVG 1.1//EN" "http://www.w3.org/Graphics/SVG/1.1/DTD/svg11.dtd">
<svg version="1.1" id="Capa_1" xmlns="http://www.w3.org/2000/svg" xmlns:xlink="http://www.w3.org/1999/xlink" x="0px" y="0px"
	 width="334px" height="100px" viewBox="0 0 334 100" enable-background="new 0 0 334 100" xml:space="preserve">
<text transform="matrix(0.9905 0 0 1 102.9883 71.6904)" fill="#3166AB" font-family="'Aharoni-Bold'" font-size="63.246">Metises</text>
<polygon fill="#3166AB" points="15.072,29.992 51.317,8.887 87.564,29.992 75.865,36.76 64.28,29.533 51.317,37.333 39.044,29.418 
	26.886,37.333 "/>
<polygon fill="#489EDA" points="15.072,29.992 14.854,71.26 51.103,92.818 87.672,71.739 87.564,29.992 75.865,36.76 75.824,64.68 
	51.263,79.014 27.208,65.441 26.886,37.333 "/>
<polygon fill="#489EDA" points="51.604,65.086 38.98,57.977 38.961,43.599 51.604,50.727 "/>
<polygon fill="#489EDA" points="51.604,65.086 64.528,57.891 64.56,43.421 51.604,50.727 "/>
<polygon fill="#3166AB" points="75.823,64.68 51.262,79.014 27.208,65.441 38.98,57.977 51.571,65.064 64.372,57.891 "/>
</svg>
